<svg xmlns="http://www.w3.org/2000/svg" viewBox="0 0 64 64" role="img" aria-label="Curated">
  <defs>
    <linearGradient id="g" x1="0%" x2="100%" y1="0%" y2="100%">
      <stop offset="0%" stop-color="#44b444" />
      <stop offset="100%" stop-color="#8BC34A" />
    </linearGradient>
  </defs>
  <rect width="64" height="64" rx="18" fill="#111827" />
  <path d="M18 32c0-8.8 6.8-15 15.8-15 5 0 9.2 1.6 12.4 4.9l-4.4 4.1c-2.2-2.1-4.8-3.1-7.8-3.1-5.5 0-9.5 3.8-9.5 9.1s4 9.1 9.5 9.1c3 0 5.6-1 7.8-3.1l4.4 4.1C43 45.4 38.8 47 33.8 47 24.8 47 18 40.8 18 32z" fill="url(#g)" />
  <circle cx="47" cy="18" r="5" fill="#FFEB3B" />
</svg>
